<svg id="ic-apply-service" xmlns="http://www.w3.org/2000/svg" width="50" height="50" viewBox="0 0 50 50">
  <path id="Path_121" data-name="Path 121" d="M0,0H50V50H0Z" fill="none"/>
  <path id="Path_122" data-name="Path 122" d="M29.14,6.175V20.789H8.618L7.386,22.021,6.175,23.232V6.175H29.14M31.228,2H4.088A2.094,2.094,0,0,0,2,4.088V33.316l8.351-8.351H31.228a2.094,2.094,0,0,0,2.088-2.088V4.088A2.094,2.094,0,0,0,31.228,2Zm10.439,8.351H37.491V29.14H10.351v4.175A2.094,2.094,0,0,0,12.439,35.4H35.4l8.351,8.351V12.439A2.094,2.094,0,0,0,41.666,10.351Z" transform="translate(2.123 2.123)" fill="#008179"/>
</svg>
