<svg xmlns="http://www.w3.org/2000/svg" width="50" height="50" viewBox="0 0 50 50">
  <g id="ic-apply-service" transform="translate(0 0.494)">
    <rect id="Rectangle_264" data-name="Rectangle 264" width="50" height="50" transform="translate(0 -0.494)" fill="none"/>
    <g id="journal-arrow-up" transform="translate(4.516 4.992)">
      <path id="Path_111" data-name="Path 111" d="M11.95,20.479a1.29,1.29,0,0,0,1.29-1.29V9.4L16.2,12.364a1.291,1.291,0,0,0,1.826-1.826L12.863,5.378a1.29,1.29,0,0,0-1.826,0L5.878,10.537A1.291,1.291,0,0,0,7.7,12.364L10.66,9.4V19.19A1.29,1.29,0,0,0,11.95,20.479Z" transform="translate(8.687 7.897)" fill="#008179" stroke="#008179" stroke-width="0.5" fill-rule="evenodd"/>
      <path id="Path_112" data-name="Path 112" d="M6.159,0h25.8a5.159,5.159,0,0,1,5.159,5.159V36.115a5.159,5.159,0,0,1-5.159,5.159H6.159A5.159,5.159,0,0,1,1,36.115v-2.58H3.58v2.58a2.58,2.58,0,0,0,2.58,2.58h25.8a2.58,2.58,0,0,0,2.58-2.58V5.159a2.58,2.58,0,0,0-2.58-2.58H6.159a2.58,2.58,0,0,0-2.58,2.58v2.58H1V5.159A5.159,5.159,0,0,1,6.159,0Z" transform="translate(1.58)" fill="#008179" stroke="#008179" stroke-width="0.5"/>
      <path id="Path_113" data-name="Path 113" d="M2.58,6.58V5.29a1.29,1.29,0,0,1,2.58,0V6.58h1.29a1.29,1.29,0,0,1,0,2.58H1.29a1.29,1.29,0,0,1,0-2.58Zm0,7.739v-1.29a1.29,1.29,0,1,1,2.58,0v1.29h1.29a1.29,1.29,0,1,1,0,2.58H1.29a1.29,1.29,0,1,1,0-2.58Zm0,7.739v-1.29a1.29,1.29,0,1,1,2.58,0v1.29h1.29a1.29,1.29,0,1,1,0,2.58H1.29a1.29,1.29,0,1,1,0-2.58Z" transform="translate(0 6.319)" fill="#008179" stroke="#008179" stroke-width="0.5"/>
    </g>
  </g>
</svg>
