<svg xmlns="http://www.w3.org/2000/svg" width="95" height="95" viewBox="0 0 95 95">
  <g id="ic-ai" transform="translate(-771 -2060)">
    <g id="support_agent_black_24dp" transform="translate(771 2060)">
      <g id="Group_12" data-name="Group 12" transform="translate(0)">
        <rect id="Rectangle_27" data-name="Rectangle 27" width="95" height="95" fill="none"/>
      </g>
    </g>
    <g id="Group_530" data-name="Group 530" transform="translate(771 2070)">
      <path id="Path_387" data-name="Path 387" d="M-2324.846,3111.212h-5.09a9.171,9.171,0,0,1-9.161-9.161v-13.5a9.171,9.171,0,0,1,9.161-9.162h5.09a2.374,2.374,0,0,1,2.374,2.375v27.076A2.375,2.375,0,0,1-2324.846,3111.212Zm-5.09-27.075a4.416,4.416,0,0,0-4.411,4.412v13.5a4.416,4.416,0,0,0,4.411,4.411h2.714v-22.325Z" transform="translate(2339.097 -3048.512)" fill="#008179"/>
      <path id="Path_388" data-name="Path 388" d="M-2166.632,3111.212h-5.089a2.376,2.376,0,0,1-2.375-2.375v-27.076a2.375,2.375,0,0,1,2.375-2.375h5.089a9.171,9.171,0,0,1,9.161,9.162v13.5A9.171,9.171,0,0,1-2166.632,3111.212Zm-2.714-4.75h2.714a4.416,4.416,0,0,0,4.411-4.411v-13.5a4.416,4.416,0,0,0-4.411-4.412h-2.714Z" transform="translate(2252.472 -3048.512)" fill="#008179"/>
      <path id="Path_389" data-name="Path 389" d="M-2245.222,3052.387a2.375,2.375,0,0,1-2.375-2.375,30.911,30.911,0,0,0-30.875-30.876,30.91,30.91,0,0,0-30.874,30.876,2.376,2.376,0,0,1-2.375,2.375,2.375,2.375,0,0,1-2.375-2.375,35.665,35.665,0,0,1,35.625-35.625,35.665,35.665,0,0,1,35.625,35.625A2.375,2.375,0,0,1-2245.222,3052.387Z" transform="translate(2325.972 -3014.387)" fill="#008179"/>
      <path id="Path_390" data-name="Path 390" d="M-2222.22,3147.942h-9.5a2.374,2.374,0,0,1-2.375-2.375,2.375,2.375,0,0,1,2.375-2.375h9.5a16.642,16.642,0,0,0,16.624-16.624,2.376,2.376,0,0,1,2.376-2.375,2.375,2.375,0,0,1,2.375,2.375A21.4,21.4,0,0,1-2222.22,3147.942Z" transform="translate(2283.971 -3072.036)" fill="#008179"/>
      <g id="Group_529" data-name="Group 529" transform="translate(23.274 11.529)">
        <path id="Path_391" data-name="Path 391" d="M-2264.588,3142.194l-1.883-11.729,12.29,4.037-8.468,8.329A1.149,1.149,0,0,1-2264.588,3142.194Z" transform="translate(2277.695 -3086.856)" fill="#008179"/>
        <path id="Path_392" data-name="Path 392" d="M-2258.147,3039.88a24.348,24.348,0,0,0-30.729,15.535,24.348,24.348,0,0,0,15.536,30.731,24.35,24.35,0,0,0,30.73-15.536A24.35,24.35,0,0,0-2258.147,3039.88Zm-20.231,27.066a4.2,4.2,0,0,1-4.2-4.2,4.2,4.2,0,0,1,4.2-4.2,4.2,4.2,0,0,1,4.2,4.2A4.2,4.2,0,0,1-2278.379,3066.947Zm12.663,0a4.2,4.2,0,0,1-4.2-4.2,4.2,4.2,0,0,1,4.2-4.2,4.2,4.2,0,0,1,4.2,4.2A4.2,4.2,0,0,1-2265.715,3066.947Zm12.664,0a4.2,4.2,0,0,1-4.2-4.2,4.2,4.2,0,0,1,4.2-4.2,4.2,4.2,0,0,1,4.2,4.2A4.2,4.2,0,0,1-2253.052,3066.947Z" transform="translate(2290.099 -3038.658)" fill="#008179"/>
      </g>
    </g>
  </g>
</svg>
