<svg xmlns="http://www.w3.org/2000/svg" width="95" height="95" viewBox="0 0 95 95">
  <g id="ic-case" transform="translate(-0.238)">
    <g id="Group_9" data-name="Group 9">
      <rect id="Rectangle_26" data-name="Rectangle 26" width="95" height="95" transform="translate(0.238)" fill="none"/>
    </g>
    <g id="Group_11" data-name="Group 11" transform="translate(11.857 3.952)">
      <g id="Group_10" data-name="Group 10">
        <path id="Path_36" data-name="Path 36" d="M10.9,16.81h7.9V28.667H58.333V16.81h7.9V36.571h7.9V16.81a7.928,7.928,0,0,0-7.9-7.9H49.717a11.81,11.81,0,0,0-22.291,0H10.9A7.928,7.928,0,0,0,3,16.81V72.143a7.928,7.928,0,0,0,7.9,7.9H30.667v-7.9H10.9ZM38.571,8.9a3.952,3.952,0,1,1-3.952,3.952A3.964,3.964,0,0,1,38.571,8.9Z" transform="translate(-3 -1)" fill="#008179"/>
        <path id="Path_37" data-name="Path 37" d="M44.8,39.271a19.03,19.03,0,0,0,2.767-9.486A17.786,17.786,0,1,0,29.786,47.571,19.03,19.03,0,0,0,39.271,44.8L49.943,55.476l5.533-5.533Zm-15.019.4a9.881,9.881,0,1,1,9.881-9.881A9.785,9.785,0,0,1,29.786,39.667Z" transform="translate(23.571 31.476)" fill="#008179"/>
      </g>
    </g>
  </g>
</svg>
