<svg id="ic-event" xmlns="http://www.w3.org/2000/svg" width="50" height="50" viewBox="0 0 50 50">
  <path id="Path_194" data-name="Path 194" d="M0,0H50V50H0Z" fill="none"/>
  <path id="Path_195" data-name="Path 195" d="M36.333,5.167H34.25V1H30.083V5.167H13.417V1H9.25V5.167H7.167A4.179,4.179,0,0,0,3,9.333V38.5a4.179,4.179,0,0,0,4.167,4.167H36.333A4.179,4.179,0,0,0,40.5,38.5V9.333A4.179,4.179,0,0,0,36.333,5.167Zm0,33.333H7.167V17.667H36.333ZM7.167,13.5V9.333H36.333V13.5ZM18.75,35.292,31.1,22.937,28.9,20.729,18.75,30.875l-4.4-4.4-2.208,2.208Z" transform="translate(3.25 1.083)" fill="#008179"/>
</svg>
