<svg xmlns="http://www.w3.org/2000/svg" width="38" height="38" viewBox="0 0 38 38">
  <g id="ic-globe" transform="translate(2321 1780)">
    <g id="インターネットのアイコン3" transform="translate(-2321 -1780)">
      <path id="Path_27" data-name="Path 27" d="M34.576,199.751a5.2,5.2,0,0,1-1.041.668c-.237.025-.476.044-.716.058V197.7q-.86-.7-1.729-1.458v4.24c-.24-.015-.478-.033-.715-.059a5.206,5.206,0,0,1-1.041-.668A11.159,11.159,0,0,1,26.35,195.3h3.676q-.94-.84-1.881-1.729h-2.4a24.168,24.168,0,0,1-.693-3.059q-1.024-1.06-1.99-2.122a27.565,27.565,0,0,0,.883,5.181H19.528a14.5,14.5,0,0,1-2.149-6.805H21.62q-.752-.868-1.457-1.729H17.379a14.6,14.6,0,0,1,.486-2.961q-.881-1.2-1.645-2.363a16.907,16.907,0,0,0,21.922,21.923c-1.03-.677-2.089-1.43-3.166-2.246C34.844,199.52,34.711,199.641,34.576,199.751Zm-12.947-3.522c-.3-.3-.578-.607-.847-.927h3.725a18.791,18.791,0,0,0,.924,2.139,13.726,13.726,0,0,0,1.335,2.113A14.617,14.617,0,0,1,21.629,196.229Z" transform="translate(-13.95 -166.629)" fill="#666"/>
      <path id="Path_28" data-name="Path 28" d="M78.442,37.786c.369.661.789,1.351,1.251,2.06.231-.268.465-.533.715-.783a14.62,14.62,0,0,1,5.149-3.33,15.777,15.777,0,0,0-2.274,4.256h-3.5c.37.564.769,1.142,1.192,1.729H82.73c-.159.574-.3,1.17-.419,1.781q.695.893,1.452,1.8a24.567,24.567,0,0,1,.771-3.585h5.337v6.805H86.585q.8.867,1.642,1.729h1.644V51.9q.861.839,1.729,1.641V50.253h6.389a26.422,26.422,0,0,1-1.052,6.805H95.672q1.246,1,2.453,1.884c.02-.053.043-.1.062-.155h3.722c-.27.32-.551.631-.847.927-.25.25-.512.487-.78.718.709.462,1.4.88,2.056,1.25a16.9,16.9,0,1,0-23.9-23.9Zm24.721,19.273H98.741a28.512,28.512,0,0,0,.983-6.805h5.587A14.5,14.5,0,0,1,103.163,57.059Zm0-15.34a14.506,14.506,0,0,1,2.15,6.805H99.718a28.559,28.559,0,0,0-.974-6.805Zm-2.1-2.656c.3.3.577.606.847.927H98.184a18.917,18.917,0,0,0-.924-2.139,13.818,13.818,0,0,0-1.335-2.113A14.624,14.624,0,0,1,101.061,39.063ZM91.6,34.814c.24.015.479.033.716.059a5.171,5.171,0,0,1,1.04.668,11.154,11.154,0,0,1,2.984,4.449H91.6Zm0,6.9h5.345a26.461,26.461,0,0,1,1.05,6.805H91.6ZM88.114,35.54a5.2,5.2,0,0,1,1.04-.668c.237-.025.476-.044.716-.059v5.176H85.139c.191-.471.391-.926.608-1.345A9.8,9.8,0,0,1,88.114,35.54Z" transform="translate(-72.731 -30.115)" fill="#666"/>
      <path id="Path_29" data-name="Path 29" d="M36.628,30.889A23.088,23.088,0,0,0,35.2,27.843a19.315,19.315,0,0,1-1.382,2.334c.261.539.479,1.045.652,1.513a6.878,6.878,0,0,1,.508,2.255,1.775,1.775,0,0,1-.077.563.55.55,0,0,1-.389.389,1.789,1.789,0,0,1-.562.076,6.609,6.609,0,0,1-2.1-.45,20.464,20.464,0,0,1-3.015-1.407A67.508,67.508,0,0,1,15.091,22.188,67.517,67.517,0,0,1,4.163,8.447,20.522,20.522,0,0,1,2.756,5.432a6.624,6.624,0,0,1-.45-2.1,1.779,1.779,0,0,1,.077-.562.552.552,0,0,1,.39-.389A1.786,1.786,0,0,1,3.335,2.3a6.886,6.886,0,0,1,2.253.507c.469.173.978.393,1.519.654A19.264,19.264,0,0,1,9.441,2.084,22.977,22.977,0,0,0,6.388.649,9.049,9.049,0,0,0,3.335,0a4.066,4.066,0,0,0-1.3.2A2.922,2.922,0,0,0,.893.9,2.9,2.9,0,0,0,.2,2.032a4.056,4.056,0,0,0-.2,1.3A8.783,8.783,0,0,0,.584,6.2,22.716,22.716,0,0,0,2.149,9.568,69.637,69.637,0,0,0,13.461,23.818,69.654,69.654,0,0,0,27.711,35.13,22.763,22.763,0,0,0,31.075,36.7a8.794,8.794,0,0,0,2.871.583,4.054,4.054,0,0,0,1.3-.2,2.852,2.852,0,0,0,1.834-1.833,4.063,4.063,0,0,0,.2-1.3A9.041,9.041,0,0,0,36.628,30.889Z" transform="translate(0 0.001)" fill="#666"/>
    </g>
    <rect id="Rectangle_392" data-name="Rectangle 392" width="38" height="38" transform="translate(-2321 -1780)" fill="none"/>
  </g>
</svg>
