<svg xmlns="http://www.w3.org/2000/svg" width="40" height="40" viewBox="0 0 40 40">
  <g id="ic-google" transform="translate(-564 -450)">
    <rect id="Rectangle_381" data-name="Rectangle 381" width="40" height="40" transform="translate(564 450)" fill="none"/>
    <path id="google" d="M33.048,13.942a20.026,20.026,0,0,1,.3,3.457A16.608,16.608,0,0,1,28.275,29.91h0a16.266,16.266,0,0,1-11.272,4.105A17.007,17.007,0,1,1,17.008,0,16.346,16.346,0,0,1,28.386,4.427L23.53,9.282a9.241,9.241,0,0,0-6.522-2.551,10.282,10.282,0,0,0-9.55,13.536h.006A10.317,10.317,0,0,0,22.8,25.661h-.006a7.87,7.87,0,0,0,3.4-5.168H17.008V13.945h16.04Z" transform="translate(567.756 452.992)" fill="#bf4c1a"/>
  </g>
</svg>
