<svg xmlns="http://www.w3.org/2000/svg" width="22" height="22" viewBox="0 0 22 22">
  <g id="ic-home" transform="translate(0 0.494)">
    <rect id="Rectangle_263" data-name="Rectangle 263" width="22" height="22" transform="translate(0 -0.494)" fill="none"/>
    <g id="house-fill" transform="translate(2.123 2.838)">
      <path id="Path_115" data-name="Path 115" d="M10.213,1.554a1.184,1.184,0,0,0-1.674,0L.673,9.42a.593.593,0,1,0,.838.838L9.377,2.39l7.866,7.867a.593.593,0,0,0,.838-.838L15.294,6.635v-3.9a.592.592,0,0,0-.592-.592H13.519a.592.592,0,0,0-.592.592v1.53Z" transform="translate(-0.499 -1.207)" fill="#999"/>
      <path id="Path_116" data-name="Path 116" d="M9.1,3.293l7.1,7.1v4.979a1.775,1.775,0,0,1-1.775,1.775H3.775A1.775,1.775,0,0,1,2,15.373V10.394l7.1-7.1Z" transform="translate(-0.224 -0.824)" fill="#999"/>
    </g>
  </g>
</svg>
