<svg id="ic-human" xmlns="http://www.w3.org/2000/svg" width="40" height="40" viewBox="0 0 40 40">
  <path id="Path_116" data-name="Path 116" d="M0,0H40V40H0Z" fill="none"/>
  <path id="Path_117" data-name="Path 117" d="M29.667,4.333H22.7a4.98,4.98,0,0,0-9.4,0H6.333A3.343,3.343,0,0,0,3,7.667V31a3.343,3.343,0,0,0,3.333,3.333H29.667A3.343,3.343,0,0,0,33,31V7.667A3.343,3.343,0,0,0,29.667,4.333ZM18,3.917a1.278,1.278,0,1,1-.917.417A1.248,1.248,0,0,1,18,3.917ZM29.667,31H6.333V7.667H29.667ZM18,9.333a5,5,0,1,0,5,5A5.015,5.015,0,0,0,18,9.333ZM18,16a1.667,1.667,0,1,1,1.667-1.667A1.672,1.672,0,0,1,18,16ZM8,26.783v2.55H28v-2.55c0-4.167-6.617-5.967-10-5.967S8,22.6,8,26.783ZM11.85,26A11.685,11.685,0,0,1,18,24.133,11.636,11.636,0,0,1,24.15,26Z" transform="translate(2 0.667)" fill="#008179"/>
</svg>
