<svg xmlns="http://www.w3.org/2000/svg" width="55" height="55" viewBox="0 0 55 55">
  <g id="ic-id-default" transform="translate(0.078)">
    <rect id="Rectangle_373" data-name="Rectangle 373" width="55" height="55" transform="translate(-0.078)" fill="none"/>
    <g id="Group_457" data-name="Group 457" transform="translate(2.24 2.384)">
      <g id="Group_452" data-name="Group 452" transform="translate(0)">
        <g id="Group_451" data-name="Group 451">
          <path id="Path_337" data-name="Path 337" d="M-3155.219,1553.348a22.161,22.161,0,0,0-31.3,0,21.978,21.978,0,0,0-6.484,15.65,21.976,21.976,0,0,0,3.2,11.435l-8.065,8.063a5.224,5.224,0,0,0,.128,7.37,5.372,5.372,0,0,0,3.675,1.59h.132a4.989,4.989,0,0,0,3.566-1.465l8.068-8.066a22.122,22.122,0,0,0,11.429,3.2,22.059,22.059,0,0,0,15.651-6.473A22.16,22.16,0,0,0-3155.219,1553.348Zm-37.384,40.408a1.843,1.843,0,0,1-1.385.539,2.216,2.216,0,0,1-1.517-.665,2.063,2.063,0,0,1-.127-2.9l3.155-3.155,3.029,3.028Zm5.39-5.388-3.027-3.029,2.277-2.276c.453.547.931,1.078,1.441,1.587s1.043.986,1.59,1.438Zm29.758-5.953a19,19,0,0,1-23.75,2.489l-.361-.248c-.063-.042-.123-.092-.185-.136-.439-.308-.857-.62-1.249-.942-.441-.367-.874-.749-1.288-1.163s-.781-.828-1.142-1.26-.713-.9-1.056-1.4l-.315-.457a18.828,18.828,0,0,1-3.044-10.3,18.85,18.85,0,0,1,5.557-13.415,18.923,18.923,0,0,1,13.417-5.548,18.918,18.918,0,0,1,13.415,5.548A19,19,0,0,1-3157.455,1582.414Z" transform="translate(3199.327 -1546.876)" fill="#666"/>
        </g>
      </g>
      <g id="Group_454" data-name="Group 454" transform="translate(22.917 6.323)">
        <g id="Group_453" data-name="Group 453">
          <path id="Path_338" data-name="Path 338" d="M-3179.3,1565.1c3.1,0,5.532-3.471,5.532-7.9,0-3.959-2.068-6.323-5.532-6.323s-5.533,2.363-5.533,6.323C-3184.831,1561.631-3182.4,1565.1-3179.3,1565.1Zm0-11.064c.71,0,2.37,0,2.37,3.161,0,2.67-1.275,4.742-2.37,4.742-1.119,0-2.371-2.028-2.371-4.742C-3181.669,1554.038-3180.008,1554.038-3179.3,1554.038Z" transform="translate(3184.831 -1550.876)" fill="#666"/>
        </g>
      </g>
      <g id="Group_456" data-name="Group 456" transform="translate(17.387 22.128)">
        <g id="Group_455" data-name="Group 455">
          <path id="Path_339" data-name="Path 339" d="M-3172.093,1560.929a1.573,1.573,0,0,0-1.928,1.127,1.578,1.578,0,0,0,1.125,1.93c.038.009,3.489.983,3.532,6.375h-15.8c.047-5.259,3.362-6.323,3.55-6.379a1.58,1.58,0,0,0,1.108-1.925,1.576,1.576,0,0,0-1.93-1.127c-2.312.607-6.5,3.721-5.813,11.158a1.581,1.581,0,0,0,1.574,1.435h18.826a1.584,1.584,0,0,0,1.575-1.435C-3165.592,1564.65-3169.782,1561.536-3172.093,1560.929Z" transform="translate(3188.328 -1560.875)" fill="#666"/>
        </g>
      </g>
    </g>
  </g>
</svg>
