<svg xmlns="http://www.w3.org/2000/svg" width="38" height="38" viewBox="0 0 38 38">
  <g id="ic-identity" transform="translate(2015 1780)">
    <g id="人脈アイコン1" transform="translate(-2013 -1780)">
      <path id="Path_20" data-name="Path 20" d="M201.188,8.61a4.3,4.3,0,1,0-4.3-4.3A4.305,4.305,0,0,0,201.188,8.61Z" transform="translate(-183.953)" fill="#666"/>
      <path id="Path_21" data-name="Path 21" d="M185.181,133.538c2.957,0,5.985-1.024,5.513-3.859a7.906,7.906,0,0,0-1.868-3.488.841.841,0,0,0-.633-.046,5.724,5.724,0,0,1-6.025,0,.842.842,0,0,0-.633.046,7.907,7.907,0,0,0-1.868,3.488C179.2,132.514,182.224,133.538,185.181,133.538Z" transform="translate(-167.947 -116.922)" fill="#666"/>
      <path id="Path_22" data-name="Path 22" d="M40.871,292.411a4.3,4.3,0,1,0-4.3-4.3A4.305,4.305,0,0,0,40.871,292.411Z" transform="translate(-35.309 -263.138)" fill="#666"/>
      <path id="Path_23" data-name="Path 23" d="M28.512,410a.838.838,0,0,0-.633-.047,5.726,5.726,0,0,1-6.025,0,.84.84,0,0,0-.633.047,7.9,7.9,0,0,0-1.867,3.487c-.473,2.835,2.556,3.858,5.512,3.858s5.986-1.023,5.513-3.858A7.9,7.9,0,0,0,28.512,410Z" transform="translate(-19.305 -380.061)" fill="#666"/>
      <path id="Path_24" data-name="Path 24" d="M361.493,292.411a4.3,4.3,0,1,0-4.305-4.3A4.3,4.3,0,0,0,361.493,292.411Z" transform="translate(-332.586 -263.138)" fill="#666"/>
      <path id="Path_25" data-name="Path 25" d="M351,413.482A7.9,7.9,0,0,0,349.137,410a.84.84,0,0,0-.633-.047,5.726,5.726,0,0,1-6.025,0,.838.838,0,0,0-.633.047,7.906,7.906,0,0,0-1.867,3.487c-.473,2.835,2.556,3.858,5.513,3.858S351.477,416.317,351,413.482Z" transform="translate(-316.585 -380.061)" fill="#666"/>
      <path id="Path_26" data-name="Path 26" d="M182.932,248.745l-5.132-2.963v-5.926a.71.71,0,1,0-1.419,0v5.926l-5.132,2.963a.71.71,0,0,0,.71,1.23l5.132-2.963,5.132,2.963a.71.71,0,0,0,.71-1.23Z" transform="translate(-159.855 -221.733)" fill="#666"/>
    </g>
    <rect id="Rectangle_393" data-name="Rectangle 393" width="38" height="38" transform="translate(-2015 -1780)" fill="none"/>
  </g>
</svg>
