<svg xmlns="http://www.w3.org/2000/svg" width="74" height="74" viewBox="0 0 74 74">
  <g id="ic-id" transform="translate(5483 1601)">
    <g id="人脈アイコン1" transform="translate(-5498.305 -1600)">
      <path id="Path_20" data-name="Path 20" d="M205.329,16.894a8.447,8.447,0,1,0-8.446-8.446A8.448,8.448,0,0,0,205.329,16.894Z" transform="translate(-152.739)" fill="#008179"/>
      <path id="Path_21" data-name="Path 21" d="M190.532,140.691c5.8,0,11.745-2.009,10.817-7.572a15.513,15.513,0,0,0-3.665-6.844,1.651,1.651,0,0,0-1.242-.09,11.231,11.231,0,0,1-11.822,0,1.651,1.651,0,0,0-1.242.09,15.514,15.514,0,0,0-3.665,6.844C178.788,138.682,184.731,140.691,190.532,140.691Z" transform="translate(-137.942 -108.441)" fill="#008179"/>
      <path id="Path_22" data-name="Path 22" d="M45.012,300.7a8.447,8.447,0,1,0-8.446-8.446A8.448,8.448,0,0,0,45.012,300.7Z" transform="translate(-14.795 -244.084)" fill="#008179"/>
      <path id="Path_23" data-name="Path 23" d="M37.37,410.08a1.646,1.646,0,0,0-1.242-.091,11.235,11.235,0,0,1-11.822,0,1.649,1.649,0,0,0-1.243.091,15.5,15.5,0,0,0-3.663,6.843c-.927,5.563,5.015,7.571,10.816,7.571s11.745-2.008,10.817-7.571A15.51,15.51,0,0,0,37.37,410.08Z" transform="translate(0 -352.493)" fill="#008179"/>
      <path id="Path_24" data-name="Path 24" d="M365.635,300.7a8.447,8.447,0,1,0-8.447-8.446A8.447,8.447,0,0,0,365.635,300.7Z" transform="translate(-290.673 -244.084)" fill="#008179"/>
      <path id="Path_25" data-name="Path 25" d="M361.66,416.922A15.5,15.5,0,0,0,358,410.08a1.648,1.648,0,0,0-1.243-.091,11.236,11.236,0,0,1-11.822,0,1.646,1.646,0,0,0-1.242.091,15.514,15.514,0,0,0-3.664,6.843c-.927,5.563,5.014,7.571,10.817,7.571S362.587,422.485,361.66,416.922Z" transform="translate(-275.88 -352.493)" fill="#008179"/>
      <path id="Path_26" data-name="Path 26" d="M194.516,257.98l-10.071-5.814V240.539a1.392,1.392,0,1,0-2.785,0v11.628l-10.071,5.814a1.393,1.393,0,0,0,1.393,2.414l10.07-5.815,10.071,5.814a1.393,1.393,0,0,0,1.393-2.413Z" transform="translate(-130.462 -205.739)" fill="#008179"/>
    </g>
    <rect id="Rectangle_372" data-name="Rectangle 372" width="74" height="74" transform="translate(-5483 -1601)" fill="none"/>
  </g>
</svg>
