<svg id="ic-K" xmlns="http://www.w3.org/2000/svg" width="24" height="24" viewBox="0 0 24 24">
  <circle id="Ellipse_11" data-name="Ellipse 11" cx="12" cy="12" r="12" fill="#edcc6c"/>
  <g id="Group_76" data-name="Group 76" transform="translate(4.663 5.074)">
    <g id="Group_75" data-name="Group 75">
      <path id="Path_58" data-name="Path 58" d="M403.606,251.632a.435.435,0,0,0-.61,0l-1.524,1.507-.187.186a.545.545,0,0,0-.127.436V256.6H398.2V244.476h2.962v.811a.432.432,0,0,0,.863,0v-1.242a.435.435,0,0,0-.431-.431h-3.825a.435.435,0,0,0-.431.431v12.99a.434.434,0,0,0,.431.43h3.825a.434.434,0,0,0,.431-.43V253.81l1.585-1.569a.433.433,0,0,0,0-.609Z" transform="translate(-397.334 -243.613)" fill="#fff"/>
      <g id="Group_72" data-name="Group 72" transform="translate(3.794 2.785)">
        <path id="Path_59" data-name="Path 59" d="M403.284,248.534a.431.431,0,1,0-.41-.43A.431.431,0,0,0,403.284,248.534Z" transform="translate(-402.867 -247.673)" fill="#fff"/>
      </g>
      <g id="Group_73" data-name="Group 73" transform="translate(3.947)">
        <path id="Path_60" data-name="Path 60" d="M412.478,243.614h-4.224c-.206,0-.447-.032-.6.141l-.344.387-1.594,1.795-2.5,2.817a.431.431,0,0,0,.61.609l2.689-3.028,1.651-1.859h3.272l-.49.49a.431.431,0,0,0,.61.608l1.227-1.224a.434.434,0,0,0-.307-.736Z" transform="translate(-403.091 -243.612)" fill="#fff"/>
        <path id="Path_61" data-name="Path 61" d="M413.467,247a.431.431,0,1,0,.41.431.431.431,0,0,0-.41-.431Z" transform="translate(-406.221 -244.677)" fill="#fff"/>
      </g>
      <g id="Group_74" data-name="Group 74" transform="translate(4.764 3.512)">
        <path id="Path_62" data-name="Path 62" d="M410.274,261.107a.431.431,0,1,0,.411.431A.431.431,0,0,0,410.274,261.107Z" transform="translate(-406.034 -252.622)" fill="#fff"/>
        <path id="Path_63" data-name="Path 63" d="M415.649,258.426l-1.976-2.7-3.092-4.22-.446-.609,1.426-1.434a.431.431,0,0,0-.61-.609l-1.685,1.694a.429.429,0,0,0-.067.522q.988,1.348,1.976,2.7l3.092,4.221.163.222h-3.341a.431.431,0,0,0,0,.861h4.188a.433.433,0,0,0,.372-.648Z" transform="translate(-405.808 -248.733)" fill="#fff"/>
        <path id="Path_64" data-name="Path 64" d="M405.5,254.3l-.409-.6a.439.439,0,0,0-.59-.154.432.432,0,0,0-.154.589l2.42,3.553.409.6a.44.44,0,0,0,.59.155.432.432,0,0,0,.155-.589Q406.708,256.075,405.5,254.3Z" transform="translate(-404.282 -250.227)" fill="#fff"/>
      </g>
    </g>
  </g>
</svg>
