<svg xmlns="http://www.w3.org/2000/svg" width="90" height="90" viewBox="0 0 90 90">
  <g id="ic-list-done" transform="translate(0 -0.5)">
    <g id="Group_322" data-name="Group 322" transform="translate(0 0.5)">
      <rect id="Rectangle_328" data-name="Rectangle 328" width="90" height="90" fill="none"/>
    </g>
    <g id="Group_324" data-name="Group 324" transform="translate(8.62 8.186)">
      <g id="Group_323" data-name="Group 323">
        <path id="Path_192" data-name="Path 192" d="M10.463,15.925h7.463V27.119H55.239V15.925H62.7V34.582h7.463V15.925A7.485,7.485,0,0,0,62.7,8.463H47.1a11.15,11.15,0,0,0-21.045,0h-15.6A7.485,7.485,0,0,0,3,15.925V68.164a7.485,7.485,0,0,0,7.463,7.463H32.851V68.164H10.463ZM36.582,8.463a3.731,3.731,0,1,1-3.731,3.731A3.742,3.742,0,0,1,36.582,8.463Z" transform="translate(-3 -1)" fill="#008179"/>
        <path id="Path_193" data-name="Path 193" d="M48.314,11.5,27.828,32.022,16.6,20.828l-5.6,5.6L27.828,43.216,53.911,17.1Z" transform="translate(18.851 27.679)" fill="#008179"/>
      </g>
    </g>
  </g>
</svg>
