<svg xmlns="http://www.w3.org/2000/svg" width="35" height="35" viewBox="0 0 35 35">
  <g id="ic-luggage" transform="translate(-484 -1360)">
    <rect id="Rectangle_372" data-name="Rectangle 372" width="35" height="35" transform="translate(484 1360)" fill="none"/>
    <path id="Path_343" data-name="Path 343" d="M-3271.74,1563.275h-29.4a2.126,2.126,0,0,1-2.124-2.123v-19.159a2.127,2.127,0,0,1,2.124-2.125h29.4a2.127,2.127,0,0,1,2.125,2.125v19.159A2.126,2.126,0,0,1-3271.74,1563.275Zm-29.492-21.282c0,.152-.055,19.256.1,19.256h29.4c.188,0,.112-19.354,0-19.354C-3271.892,1541.895-3301.232,1541.841-3301.232,1541.993Zm22.467-8.4h-14.961v4.315h2.027v-2.288h10.907v2.288h2.027Zm5.5,12.525-1.791-.948-2.234,4.219h-18.3l-2.235-4.219-1.791.948,2.806,5.3h20.735Zm-10.49-.39h-5.368v2.027h5.368Z" transform="translate(3788.061 -171.536)" fill="#fff"/>
  </g>
</svg>
