<svg xmlns="http://www.w3.org/2000/svg" width="40" height="40" viewBox="0 0 40 40">
  <g id="ic-line" transform="translate(-485 -561)">
    <rect id="Rectangle_380" data-name="Rectangle 380" width="40" height="40" transform="translate(485 561)" fill="none"/>
    <path id="line_1_" data-name="line (1)" d="M18.325,0c10.1,0,18.325,6.67,18.325,14.871,0,3.283-1.271,6.238-3.929,9.149-3.844,4.426-12.441,9.816-14.4,10.64-1.9.8-1.681-.451-1.594-.946l.007-.041L17,32.1a3.747,3.747,0,0,0-.06-1.656c-.206-.511-1.017-.777-1.613-.9C6.519,28.381,0,22.222,0,14.871,0,6.67,8.224,0,18.325,0ZM11.5,17.606H8.011V11.266a.357.357,0,0,0-.355-.357H6.368a.357.357,0,0,0-.357.357v7.985a.35.35,0,0,0,.1.245v0l0,0,0,0a.353.353,0,0,0,.247.1H11.5a.356.356,0,0,0,.355-.357V17.966a.357.357,0,0,0-.355-.36Zm1.812-6.7a.357.357,0,0,0-.357.357v7.985a.356.356,0,0,0,.357.355H14.6a.355.355,0,0,0,.355-.355V11.266a.357.357,0,0,0-.355-.357Zm8.849,0a.357.357,0,0,0-.357.357v4.742l-3.658-4.939a.389.389,0,0,0-.03-.034v0l-.023-.023L18.09,11a.211.211,0,0,0-.025-.021h0l-.011-.009-.007,0-.011-.007-.018-.011h0l-.007,0-.023-.009-.009,0-.023-.007h0l-.007,0-.021,0H17.9l-.007,0h-.009l0,0H16.566a.357.357,0,0,0-.357.355v7.985a.356.356,0,0,0,.357.355h1.283a.358.358,0,0,0,.36-.355V14.511l3.665,4.948a.353.353,0,0,0,.089.087l0,0,.023.014.009,0,.018.009.016.007.011,0,.023.007h.007a.355.355,0,0,0,.092.014h1.283a.358.358,0,0,0,.36-.355V11.266a.357.357,0,0,0-.357-.357H22.165ZM30.9,12.551V11.268a.357.357,0,0,0-.355-.36H25.413a.355.355,0,0,0-.247.1h0l0,0,0,.007a.355.355,0,0,0-.1.245v7.985a.35.35,0,0,0,.1.245l0,.007,0,0a.355.355,0,0,0,.247.1h5.136a.356.356,0,0,0,.355-.357V17.966a.357.357,0,0,0-.355-.36h-3.5V16.257h3.493A.356.356,0,0,0,30.9,15.9V14.617a.357.357,0,0,0-.355-.36H27.053V12.908h3.493a.356.356,0,0,0,.355-.357Z" transform="translate(486.675 563.539)" fill="#2d8530"/>
  </g>
</svg>
