<svg xmlns="http://www.w3.org/2000/svg" width="85" height="85" viewBox="0 0 85 85">
  <g id="ic-mail" transform="translate(5800 1791)">
    <rect id="Rectangle_373" data-name="Rectangle 373" width="85" height="85" transform="translate(-5800 -1791)" fill="none"/>
    <g id="メールの無料アイコンその8" transform="translate(-5798 -1780)">
      <path id="Path_19" data-name="Path 19" d="M80.791,64.113a11.2,11.2,0,0,0-2.32-4.913,9.661,9.661,0,0,0-.763-.846,11.211,11.211,0,0,0-7.944-3.293H11.236a11.226,11.226,0,0,0-7.943,3.293,9.867,9.867,0,0,0-.763.846,11.071,11.071,0,0,0-2.31,4.913A10.867,10.867,0,0,0,0,66.3V107.4a11.171,11.171,0,0,0,.931,4.462,11.013,11.013,0,0,0,2.361,3.481c.252.251.5.482.774.711a11.226,11.226,0,0,0,7.17,2.582H69.764a11.155,11.155,0,0,0,7.17-2.592,9.7,9.7,0,0,0,.774-.7,11.244,11.244,0,0,0,2.372-3.481v-.01A11.117,11.117,0,0,0,81,107.405V66.3A11.546,11.546,0,0,0,80.791,64.113ZM7.358,62.42a5.427,5.427,0,0,1,3.878-1.61H69.764A5.4,5.4,0,0,1,74.135,63L43.458,89.731a4.5,4.5,0,0,1-5.915,0L6.877,62.984A4.147,4.147,0,0,1,7.358,62.42ZM5.748,107.4V68.932L27.948,88.3,5.759,107.645A1.641,1.641,0,0,1,5.748,107.4Zm64.016,5.486H11.236a5.412,5.412,0,0,1-2.717-.72l23.411-20.4,2.186,1.9a9.726,9.726,0,0,0,12.782,0l2.184-1.9,23.4,20.4A5.419,5.419,0,0,1,69.764,112.891Zm5.488-5.486a1.713,1.713,0,0,1-.011.24L53.053,88.31l22.2-19.367Z" transform="translate(0 -55.062)" fill="#008179"/>
    </g>
  </g>
</svg>
