<svg xmlns="http://www.w3.org/2000/svg" width="85" height="85" viewBox="0 0 85 85">
  <g id="ic-mail" transform="translate(-1072 -1465)">
    <rect id="Rectangle_376" data-name="Rectangle 376" width="85" height="85" transform="translate(1072 1465)" fill="none"/>
    <path id="Path_347" data-name="Path 347" d="M-3233,1607.61h-67.694a4.543,4.543,0,0,0-4.593,4.481v45.961a4.545,4.545,0,0,0,4.593,4.483H-3233a4.545,4.545,0,0,0,4.593-4.483v-45.961a4.544,4.544,0,0,0-4.593-4.481Zm-31.491,30.9a2.6,2.6,0,0,1-1.846.777,2.827,2.827,0,0,1-1.863-.751l-26.933-26.559,56.589.1Zm-15.322-5.236-21.012,20.51v-41.232Zm3.138,3.094,5.3,5.232a7.08,7.08,0,0,0,5.009,2.042h.058a7.086,7.086,0,0,0,5.033-2.117l4.663-4.751,21.929,21.405-64.217-.12Zm23.155-2.739,20.649-21.03-.115,41.073Z" transform="translate(4381.403 -128.068)" fill="#57b0b7"/>
  </g>
</svg>
