<svg id="ic-mobile" xmlns="http://www.w3.org/2000/svg" width="40" height="40" viewBox="0 0 40 40">
  <path id="Path_118" data-name="Path 118" d="M0,0H40V40H0Z" fill="none"/>
  <path id="Path_119" data-name="Path 119" d="M29.54,1H12.873A3.343,3.343,0,0,0,9.54,4.333v5h3.333V6H29.54V32.667H12.873V29.333H9.54v5a3.343,3.343,0,0,0,3.333,3.333H29.54a3.343,3.343,0,0,0,3.333-3.333v-30A3.343,3.343,0,0,0,29.54,1ZM9.557,21.783l-4.25-4.25L3.19,19.65,9.54,26,21.523,14.017,19.407,11.9l-9.85,9.883Z" transform="translate(2.127 0.667)" fill="#666"/>
</svg>
