<svg xmlns="http://www.w3.org/2000/svg" width="50" height="50" viewBox="0 0 50 50">
  <g id="ic-news" transform="translate(-396 -140)">
    <rect id="Rectangle_397" data-name="Rectangle 397" width="50" height="50" transform="translate(396 140)" fill="none"/>
    <g id="NEWSのイラスト素材" transform="translate(398.3 128.667)">
      <path id="Path_400" data-name="Path 400" d="M74.836,26.119h0Z" transform="translate(-68.178 -10.238)" fill="#008179"/>
      <path id="Path_401" data-name="Path 401" d="M44.345,15.879a2.473,2.473,0,0,0-2.448-.048l-3.878,2.1-5.083-2.754a2.482,2.482,0,0,0-2.359,0L25.5,17.933l-5.08-2.754a2.479,2.479,0,0,0-2.359,0L12.98,17.933l-3.875-2.1a2.474,2.474,0,0,0-3.654,2.175v32.5H8V18.125l3.8,2.063a2.478,2.478,0,0,0,2.359,0l5.079-2.755,5.08,2.754a2.478,2.478,0,0,0,2.359,0l5.079-2.755,5.083,2.755a2.477,2.477,0,0,0,2.359,0l3.81-2.064v33.1a4.018,4.018,0,0,1-4.018,4.018H8.487A5.943,5.943,0,0,1,2.545,49.3V22.8H0V49.3a8.487,8.487,0,0,0,8.487,8.487h30.5a6.563,6.563,0,0,0,6.563-6.563V18.006A2.476,2.476,0,0,0,44.345,15.879Z" fill="#008179"/>
      <rect id="Rectangle_393" data-name="Rectangle 393" width="10.359" height="11.17" transform="translate(29.925 37.328)" fill="#008179"/>
      <rect id="Rectangle_394" data-name="Rectangle 394" width="15.27" height="1.697" transform="translate(10.922 37.497)" fill="#008179"/>
      <rect id="Rectangle_395" data-name="Rectangle 395" width="15.27" height="1.697" transform="translate(10.922 46.632)" fill="#008179"/>
      <rect id="Rectangle_396" data-name="Rectangle 396" width="15.27" height="1.697" transform="translate(10.922 42.065)" fill="#008179"/>
      <path id="Path_402" data-name="Path 402" d="M127.754,146.516v-4.754h.056l2.682,4.754a.2.2,0,0,0,.19.111h1.325l.111-.111v-7.348l-.111-.111h-1.258l-.111.111v4.764h-.056l-2.672-4.764a.207.207,0,0,0-.19-.111h-1.335l-.112.111v7.348l.112.111h1.258Z" transform="translate(-115.038 -113.129)" fill="#008179"/>
      <path id="Path_403" data-name="Path 403" d="M209.907,140.47h3.262l.111-.111v-1.191l-.111-.111h-4.854l-.112.111v7.348l.112.111h4.854l.111-.111v-1.191l-.111-.112h-3.262l-.066-.066v-1.57l.066-.067h2.717l.112-.111v-1.18l-.112-.112h-2.717l-.066-.066v-1.5Z" transform="translate(-189.68 -113.129)" fill="#008179"/>
      <path id="Path_404" data-name="Path 404" d="M281.495,139.057H280.07a.118.118,0,0,0-.134.111l-1.046,4.754h-.022l-1.335-4.754-.133-.111h-.968a.144.144,0,0,0-.145.111l-1.292,4.754h-.022l-1.091-4.754a.124.124,0,0,0-.133-.111h-1.436c-.078,0-.1.044-.09.111l1.959,7.348.133.111h1.113a.145.145,0,0,0,.145-.111l1.325-4.709h.022l1.313,4.709a.145.145,0,0,0,.145.111h1.113a.137.137,0,0,0,.145-.111l1.948-7.348C281.6,139.1,281.573,139.057,281.495,139.057Z" transform="translate(-247.999 -113.129)" fill="#008179"/>
      <path id="Path_405" data-name="Path 405" d="M385.834,144.066a3.215,3.215,0,0,1-1.982-.78l-.167.012-.846.968.011.189a4.465,4.465,0,0,0,2.917,1.036c1.959,0,2.972-1.013,2.972-2.383s-.824-2.082-2.382-2.293l-.4-.056c-.868-.123-1.18-.4-1.18-.835,0-.479.345-.824,1.013-.824a3.134,3.134,0,0,1,1.759.578l.156-.033.678-1.013c.056-.078.045-.122-.022-.167a4.279,4.279,0,0,0-2.571-.79c-1.637,0-2.683.924-2.683,2.316,0,1.335.857,2.06,2.393,2.271l.4.056c.9.123,1.169.4,1.169.846C387.07,143.7,386.624,144.066,385.834,144.066Z" transform="translate(-348.778 -111.871)" fill="#008179"/>
    </g>
  </g>
</svg>
