<svg xmlns="http://www.w3.org/2000/svg" width="55" height="56" viewBox="0 0 55 56">
  <g id="ic-office-default" transform="translate(0 0.372)">
    <rect id="Rectangle_375" data-name="Rectangle 375" width="55" height="56" transform="translate(0 -0.372)" fill="none"/>
    <g id="Group_458" data-name="Group 458" transform="translate(1.773 6.173)">
      <rect id="Rectangle_176" data-name="Rectangle 176" width="2.75" height="2.75" transform="translate(27.501 26.951)" fill="#666"/>
      <rect id="Rectangle_177" data-name="Rectangle 177" width="2.75" height="2.75" transform="translate(22.001 9.9)" fill="#666"/>
      <rect id="Rectangle_178" data-name="Rectangle 178" width="2.75" height="2.75" transform="translate(27.501 15.401)" fill="#666"/>
      <rect id="Rectangle_179" data-name="Rectangle 179" width="2.75" height="2.75" transform="translate(27.501 9.9)" fill="#666"/>
      <rect id="Rectangle_180" data-name="Rectangle 180" width="2.75" height="2.75" transform="translate(27.501 21.451)" fill="#666"/>
      <rect id="Rectangle_181" data-name="Rectangle 181" width="2.75" height="2.75" transform="translate(22.001 15.401)" fill="#666"/>
      <rect id="Rectangle_182" data-name="Rectangle 182" width="2.75" height="2.75" transform="translate(22.001 26.951)" fill="#666"/>
      <rect id="Rectangle_183" data-name="Rectangle 183" width="2.75" height="2.75" transform="translate(22.001 21.451)" fill="#666"/>
      <path id="Path_340" data-name="Path 340" d="M-3295.209,1614.293h20.351v-38.5h-20.351Zm8.8-2.75v-4.95h2.75v4.95Zm-6.05-33h14.85v33h-3.3v-7.7h-8.25v7.7h-3.3Z" transform="translate(3311.16 -1571.391)" fill="#666"/>
      <path id="Path_341" data-name="Path 341" d="M-3280.37,1585.59h11v4.4h-6.05v2.75h6.05v2.75h-6.05v2.75h6.05v2.75h-6.05v2.75h6.05v4.4h-11v2.75h13.75v-28.051h-13.75Z" transform="translate(3318.323 -1567.989)" fill="#666"/>
      <path id="Path_342" data-name="Path 342" d="M-3305.968,1610.891h13.75v-2.75h-11v-4.4h6.6v-2.75h-6.6v-2.75h6.6v-2.75h-6.6v-2.75h6.6v-2.75h-6.6v-4.4h11.551v-2.75h-14.3Z" transform="translate(3305.968 -1567.989)" fill="#666"/>
      <rect id="Rectangle_184" data-name="Rectangle 184" width="20.351" height="2.75" transform="translate(15.951)" fill="#666"/>
      <rect id="Rectangle_185" data-name="Rectangle 185" width="14.301" height="2.75" transform="translate(0 10.45)" fill="#666"/>
      <rect id="Rectangle_186" data-name="Rectangle 186" width="13.751" height="2.75" transform="translate(37.952 10.45)" fill="#666"/>
    </g>
  </g>
</svg>
