<svg id="ic-people" xmlns="http://www.w3.org/2000/svg" width="35" height="35" viewBox="0 0 35 35">
  <g id="Group_298" data-name="Group 298">
    <rect id="Rectangle_282" data-name="Rectangle 282" width="35" height="35" fill="none"/>
  </g>
  <g id="Group_300" data-name="Group 300" transform="translate(1.458 5.833)">
    <g id="Group_299" data-name="Group 299">
      <path id="Path_166" data-name="Path 166" d="M6.32,13.931a4.491,4.491,0,0,1,3.573,1.954,5.8,5.8,0,0,0,9.421-.015,4.491,4.491,0,0,1,3.573-1.954C21.837,12.138,17.637,11,14.6,11S7.37,12.138,6.32,13.931Z" transform="translate(1.438 -0.792)" fill="#008179"/>
      <path id="Path_167" data-name="Path 167" d="M5.375,15.75h0A4.375,4.375,0,1,0,1,11.375,4.369,4.369,0,0,0,5.375,15.75Z" transform="translate(-1 -2.625)" fill="#008179"/>
      <path id="Path_168" data-name="Path 168" d="M21.375,15.75h0A4.375,4.375,0,1,0,17,11.375,4.369,4.369,0,0,0,21.375,15.75Z" transform="translate(6.333 -2.625)" fill="#008179"/>
      <path id="Path_169" data-name="Path 169" d="M13.375,12.75A4.375,4.375,0,1,0,9,8.375,4.369,4.369,0,0,0,13.375,12.75Z" transform="translate(2.667 -4)" fill="#008179"/>
      <path id="Path_170" data-name="Path 170" d="M30.167,14H25.4a3.021,3.021,0,0,0-2.45,1.342,7.267,7.267,0,0,1-11.812,0A3.039,3.039,0,0,0,8.685,14H3.917A2.925,2.925,0,0,0,1,16.917V22.75H11.208v-3.3a10.178,10.178,0,0,0,11.667,0v3.3H33.083V16.917A2.925,2.925,0,0,0,30.167,14Z" transform="translate(-1 0.583)" fill="#008179"/>
    </g>
  </g>
</svg>
