<svg xmlns="http://www.w3.org/2000/svg" width="85" height="85" viewBox="0 0 85 85">
  <g id="ic-repair" transform="translate(5671 1791)">
    <rect id="Rectangle_374" data-name="Rectangle 374" width="85" height="85" transform="translate(-5671 -1791)" fill="none"/>
    <g id="ツールアイコン" transform="translate(-5669 -1785)">
      <path id="Path_15" data-name="Path 15" d="M321.591,64.1l1.619-1.636s2.488-2.137,5.324-1.168c4.938,1.686,10.643-.139,14.6-4.1a22.776,22.776,0,0,0,2.493-3.384.892.892,0,0,0,.147-.745l-.306-1.26a.9.9,0,0,0-.418-.563.887.887,0,0,0-.692-.087l-9.719,2.7a.9.9,0,0,1-.966-.336l-4.465-6.151a.887.887,0,0,1-.162-.648l.9-6.534a.892.892,0,0,1,.648-.742l10.265-2.856a.9.9,0,0,0,.63-1.078l-.406-1.651a.894.894,0,0,0-.408-.558s-.8-.533-1.39-.834A15.49,15.49,0,0,0,316.859,48.54c.51,3.611.271,5.531-1.287,7.179-.142.147-.59.6-1.283,1.275Z" transform="translate(-264.198 -29.65)" fill="#008179"/>
      <path id="Path_16" data-name="Path 16" d="M87.837,295.418c-10.895,10.556-22.778,22.041-22.778,22.041a2.084,2.084,0,0,0-.037,2.978l5.09,5.09a2.084,2.084,0,0,0,2.976-.035l22.206-22.465Z" transform="translate(-54.146 -252.136)" fill="#008179"/>
      <path id="Path_17" data-name="Path 17" d="M234.139,211.688a2.084,2.084,0,0,0-.035-2.976l-43.637-42.466-7.005,7.008,42.608,43.49a2.081,2.081,0,0,0,2.978.035Z" transform="translate(-154.222 -143.551)" fill="#008179"/>
      <path id="Path_18" data-name="Path 18" d="M40.51,25.245C35.256,23.2,26.759,22.9,21.838,27.818c-3.875,3.875-9.543,9.545-9.543,9.545-2.02,2.017-.144,4.019-1.636,5.509s-3.875,0-5.217,1.342L.522,49.137a1.79,1.79,0,0,0,0,2.533l6.856,6.856a1.793,1.793,0,0,0,2.535,0L14.833,53.6c1.345-1.342-.149-3.725,1.345-5.215,2.01-2.012,4.2-1.671,5.471-.406l2.533,2.533,2.744.722,7.005-7.005-.807-2.66c-2.234-2.236-2.553-4.824-1.153-6.223,2.167-2.167,5.745-5.3,9.1-6.639C43.2,27.858,42.56,25.731,40.51,25.245Zm-9.5,11.293c-.01.007.934-1.16.951-1.175Z" transform="translate(0.003 -23.847)" fill="#008179"/>
    </g>
  </g>
</svg>
