<svg xmlns="http://www.w3.org/2000/svg" width="95" height="95" viewBox="0 0 95 95">
  <g id="ic-reservation" transform="translate(-742 -1614)">
    <rect id="Rectangle_374" data-name="Rectangle 374" width="95" height="95" transform="translate(742 1614)" fill="none"/>
    <g id="Group_465" data-name="Group 465" transform="translate(748.19 1620.19)">
      <g id="Group_460" data-name="Group 460" transform="translate(0)">
        <g id="Group_459" data-name="Group 459">
          <path id="Path_344" data-name="Path 344" d="M-3118.971,1589.97H-3187.5a7.056,7.056,0,0,0-7.047,7.047v53.033a7.054,7.054,0,0,0,7.047,7.047h21.355c0,7.093-2.419,9.631-3.31,10.328h-4.437a2.58,2.58,0,0,0-2.581,2.582,2.58,2.58,0,0,0,2.581,2.582h41.312a2.58,2.58,0,0,0,2.582-2.582,2.58,2.58,0,0,0-2.582-2.582h-4.465c-.825-.644-3.281-3.179-3.281-10.328h21.352a7.053,7.053,0,0,0,7.046-7.047v-53.033A7.055,7.055,0,0,0-3118.971,1589.97Zm-24.449,77.456h-19.626a22.816,22.816,0,0,0,2.069-10.328h15.49A22.762,22.762,0,0,0-3143.419,1667.426Zm26.334-17.375a1.887,1.887,0,0,1-1.886,1.883H-3187.5a1.885,1.885,0,0,1-1.884-1.883v-8.442h30.982a2.58,2.58,0,0,0,2.582-2.582,2.579,2.579,0,0,0-2.582-2.582h-30.982v-39.427a1.885,1.885,0,0,1,1.884-1.883h68.526a1.887,1.887,0,0,1,1.886,1.883Z" transform="translate(3194.544 -1589.97)" fill="#008980"/>
        </g>
      </g>
      <g id="Group_462" data-name="Group 462" transform="translate(20.656 12.907)">
        <g id="Group_461" data-name="Group 461">
          <path id="Path_345" data-name="Path 345" d="M-3152.174,1601.309a5.1,5.1,0,0,1,1.044,1.735,2.587,2.587,0,0,0,3.3,1.567,2.583,2.583,0,0,0,1.57-3.3,10.3,10.3,0,0,0-2.086-3.479,10.5,10.5,0,0,0-7.747-3.418H-3177a10.389,10.389,0,0,0-10.424,10.328A10.387,10.387,0,0,0-3177,1615.076h2.611a2.581,2.581,0,0,0,2.582-2.582,2.58,2.58,0,0,0-2.582-2.582H-3177a5.219,5.219,0,0,1-5.259-5.164,5.219,5.219,0,0,1,5.259-5.164h20.906A5.31,5.31,0,0,1-3152.174,1601.309Z" transform="translate(3187.424 -1594.419)" fill="#008980"/>
        </g>
      </g>
      <g id="Group_464" data-name="Group 464" transform="translate(41.31 23.24)">
        <g id="Group_463" data-name="Group 463">
          <path id="Path_346" data-name="Path 346" d="M-3156.593,1611.047l3.419-3.417a2.586,2.586,0,0,0,.654-2.536,2.581,2.581,0,0,0-1.9-1.8l-22.722-5.245a2.606,2.606,0,0,0-2.4.69,2.575,2.575,0,0,0-.691,2.405l5.242,22.719a2.583,2.583,0,0,0,1.8,1.9,2.567,2.567,0,0,0,2.535-.656l3.422-3.418,9.1,9.1a2.565,2.565,0,0,0,1.826.758,2.571,2.571,0,0,0,1.824-.758l6.993-6.991a2.583,2.583,0,0,0,0-3.653Zm.283,14.262-9.1-9.1a2.569,2.569,0,0,0-1.824-.757,2.564,2.564,0,0,0-1.825.757l-1.951,1.947-3.27-14.158,14.158,3.27-1.947,1.95a2.579,2.579,0,0,0,0,3.65l9.1,9.1Z" transform="translate(3180.304 -1597.981)" fill="#008980"/>
        </g>
      </g>
    </g>
  </g>
</svg>
