<svg id="ic-record" xmlns="http://www.w3.org/2000/svg" width="95" height="95" viewBox="0 0 95 95">
  <g id="Group_4" data-name="Group 4">
    <rect id="Rectangle_22" data-name="Rectangle 22" width="95" height="95" fill="none"/>
  </g>
  <g id="Group_5" data-name="Group 5" transform="translate(3.952 1.976)">
    <path id="Path_33" data-name="Path 33" d="M85.858,19.076a41.779,41.779,0,0,0-5.81-2.411V64.212a40.663,40.663,0,0,0-13.833-2.45,41.885,41.885,0,0,0-21.738,6.245V20.183A43.19,43.19,0,0,0,3.1,19.076,3.845,3.845,0,0,0,1,22.554V70.3a3.9,3.9,0,0,0,3.952,3.913,4.21,4.21,0,0,0,1.9-.474,34.361,34.361,0,0,1,15.889-4.071,35.747,35.747,0,0,1,21.738,7.9,35.747,35.747,0,0,1,21.738-7.9A33.918,33.918,0,0,1,82.1,73.777a4.21,4.21,0,0,0,1.9.474,3.929,3.929,0,0,0,3.952-3.913V22.554A3.845,3.845,0,0,0,85.858,19.076ZM36.571,64.212a40.271,40.271,0,0,0-27.667,0V25.044a35.271,35.271,0,0,1,27.667.04ZM72.143.5,52.381,20.262V57.81L72.143,40.024Z" transform="translate(-1 -0.5)" fill="#57b0b7"/>
  </g>
</svg>
