<svg xmlns="http://www.w3.org/2000/svg" width="86" height="86" viewBox="0 0 86 86">
  <g id="ic-repair" transform="translate(-1347 -1465)">
    <rect id="Rectangle_377" data-name="Rectangle 377" width="86" height="86" transform="translate(1347 1465)" fill="none"/>
    <path id="Path_348" data-name="Path 348" d="M-3133.057,1671.908a1.553,1.553,0,0,0-.375-.266l-.148-.095a1.606,1.606,0,0,0-.34-.2,2.786,2.786,0,0,0-.635-.14,2.714,2.714,0,0,0-1.071.073l-.291.073a2.442,2.442,0,0,0-.6.386l-.226.008-.143.286-2.906,2.91-6.025-6.022,7.553-7.554a17.549,17.549,0,0,0,3.745.433l.354,0a18.773,18.773,0,0,0,12.966-5.561,19.1,19.1,0,0,0,3.788-20.554,2.653,2.653,0,0,0-1.929-1.6,2.641,2.641,0,0,0-2.4.727l-8.539,8.579-3.48-3.525,8.535-8.541a2.641,2.641,0,0,0,.725-2.4,2.652,2.652,0,0,0-1.6-1.931,19.1,19.1,0,0,0-20.548,3.785,18.752,18.752,0,0,0-5.563,12.969,17.239,17.239,0,0,0,.442,4.084l-7.568,7.565-14.164-14.169,1.379-1.381a2.619,2.619,0,0,0,.779-1.876,2.623,2.623,0,0,0-.776-1.873l-9.774-9.776a2.658,2.658,0,0,0-3.75,0l-6.514,6.516a2.623,2.623,0,0,0-.777,1.876,2.626,2.626,0,0,0,.777,1.876l9.773,9.777a2.722,2.722,0,0,0,3.75,0l1.38-1.384,14.167,14.168-7.566,7.559a16.356,16.356,0,0,0-4.084-.442,18.76,18.76,0,0,0-12.966,5.566,19.1,19.1,0,0,0-3.792,20.551,2.665,2.665,0,0,0,1.935,1.6,2.649,2.649,0,0,0,2.4-.727l8.537-8.585,3.484,3.528-8.539,8.541a2.649,2.649,0,0,0-.721,2.4,2.639,2.639,0,0,0,1.6,1.935,19.7,19.7,0,0,0,7.459,1.459,18.546,18.546,0,0,0,13.087-5.247,18.753,18.753,0,0,0,5.566-12.966,17.592,17.592,0,0,0-5.153-12.9,16.484,16.484,0,0,0-3.428-2.589l15.62-15.62a16.532,16.532,0,0,0,2.586,3.436,16.462,16.462,0,0,0,3.431,2.586L-3154.7,1670.3a2.634,2.634,0,0,0-.777,1.876,2.634,2.634,0,0,0,.777,1.876,2.715,2.715,0,0,0,3.748,0l1.384-1.381,6.02,6.021-2.785,2.788h-.145l-.324.565a2.01,2.01,0,0,0-.327.52,1.579,1.579,0,0,0-.094.372,2.29,2.29,0,0,0-.107.635,1.517,1.517,0,0,0,.048.341,2.415,2.415,0,0,0,.145.66l.224.374a2.071,2.071,0,0,0,.332.486l13.858,14.219a9.752,9.752,0,0,0,6.945,2.866,9.74,9.74,0,0,0,6.942-2.866,9.852,9.852,0,0,0-.014-13.909Zm-4.95-35.307a4.648,4.648,0,0,0-1.376,3.263,4.493,4.493,0,0,0,1.32,3.257l4.521,4.518a4.424,4.424,0,0,0,3.245,1.325h.053a4.678,4.678,0,0,0,3.218-1.373l5.7-5.694a13.117,13.117,0,0,1-3.626,10.584,13.48,13.48,0,0,1-9.315,4.009c-.079,0-.157,0-.232,0a12.351,12.351,0,0,1-8.818-3.6,12.323,12.323,0,0,1-3.6-9.044,13.489,13.489,0,0,1,4.012-9.318,13.619,13.619,0,0,1,10.584-3.62Zm16.738,56.107a4.489,4.489,0,0,1-1.319,3.189h0a4.52,4.52,0,0,1-3.188,1.261h0a4.473,4.473,0,0,1-3.164-1.238l-12.008-12.318,6.069-6.067,12.3,11.979A4.492,4.492,0,0,1-3121.27,1692.708Zm-56.482-54.737-2.761,2.765-6.019-6.022,2.762-2.762Zm6.853,53.492a4.649,4.649,0,0,0,1.375-3.262,4.521,4.521,0,0,0-1.322-3.257l-4.521-4.518a4.414,4.414,0,0,0-3.3-1.325,4.67,4.67,0,0,0-3.218,1.376l-5.695,5.694a13.47,13.47,0,0,1,3.623-10.584,13.467,13.467,0,0,1,9.313-4.012c.078,0,.157,0,.234,0a12.191,12.191,0,0,1,8.815,3.6,12.352,12.352,0,0,1,3.6,9.047,13.5,13.5,0,0,1-4.015,9.318,13.412,13.412,0,0,1-10.585,3.623Z" transform="translate(4544.953 -155.535)" fill="#008980"/>
  </g>
</svg>
