<svg xmlns="http://www.w3.org/2000/svg" width="74" height="74" viewBox="0 0 74 74">
  <g id="ic-reservaion" transform="translate(-742 -1614)">
    <rect id="Rectangle_374" data-name="Rectangle 374" width="74" height="74" transform="translate(742 1614)" fill="none"/>
    <g id="Group_465" data-name="Group 465" transform="translate(746.822 1618.822)">
      <g id="Group_460" data-name="Group 460">
        <g id="Group_459" data-name="Group 459">
          <path id="Path_344" data-name="Path 344" d="M-3135.68,1589.97h-53.378a5.5,5.5,0,0,0-5.49,5.49v41.31a5.5,5.5,0,0,0,5.489,5.49h16.634c0,5.525-1.884,7.5-2.578,8.045h-3.456a2.01,2.01,0,0,0-2.01,2.011,2.01,2.01,0,0,0,2.01,2.011h32.179a2.01,2.01,0,0,0,2.011-2.011,2.01,2.01,0,0,0-2.011-2.011h-3.478c-.642-.5-2.555-2.477-2.555-8.045h16.632a5.494,5.494,0,0,0,5.489-5.49v-41.31a5.5,5.5,0,0,0-5.49-5.49Zm-19.044,60.334h-15.288a17.774,17.774,0,0,0,1.611-8.045h12.066a17.725,17.725,0,0,0,1.615,8.041Zm20.513-13.534a1.469,1.469,0,0,1-1.469,1.467h-53.378a1.468,1.468,0,0,1-1.467-1.467v-6.576h24.134a2.009,2.009,0,0,0,1.423-.589,2.009,2.009,0,0,0,.588-1.422,2.009,2.009,0,0,0-.588-1.422,2.009,2.009,0,0,0-1.423-.589h-24.134V1595.46a1.468,1.468,0,0,1,1.467-1.467h53.378a1.47,1.47,0,0,1,1.469,1.467Z" transform="translate(3194.544 -1589.97)" fill="#57b0b7"/>
        </g>
      </g>
      <g id="Group_462" data-name="Group 462" transform="translate(16.09 10.054)">
        <g id="Group_461" data-name="Group 461">
          <path id="Path_345" data-name="Path 345" d="M-3159.97,1599.79a3.975,3.975,0,0,1,.814,1.352,2.014,2.014,0,0,0,2.569,1.22,2.012,2.012,0,0,0,1.223-2.567,8.021,8.021,0,0,0-1.625-2.71,8.175,8.175,0,0,0-6.034-2.662H-3179.3a8.092,8.092,0,0,0-8.12,8.045,8.091,8.091,0,0,0,8.12,8.045h2.034a2.01,2.01,0,0,0,2.011-2.011,2.01,2.01,0,0,0-2.011-2.011h-2.034a4.065,4.065,0,0,1-4.1-4.022,4.065,4.065,0,0,1,4.1-4.023h16.284A4.135,4.135,0,0,1-3159.97,1599.79Z" transform="translate(3187.424 -1594.419)" fill="#57b0b7"/>
        </g>
      </g>
      <g id="Group_464" data-name="Group 464" transform="translate(32.178 18.102)">
        <g id="Group_463" data-name="Group 463">
          <path id="Path_346" data-name="Path 346" d="M-3161.83,1608.16l2.663-2.662a2.016,2.016,0,0,0,.51-1.975,2.009,2.009,0,0,0-1.48-1.406l-17.7-4.086a2.03,2.03,0,0,0-1.872.538,2.007,2.007,0,0,0-.539,1.874l4.083,17.7a2.013,2.013,0,0,0,1.406,1.483,2,2,0,0,0,1.975-.511l2.665-2.662,7.087,7.087a2,2,0,0,0,1.422.59,2,2,0,0,0,1.42-.59l5.447-5.446a2.012,2.012,0,0,0,0-2.845Zm.22,11.11-7.088-7.085a2,2,0,0,0-1.421-.59,2,2,0,0,0-1.421.59l-1.519,1.517-2.547-11.028,11.028,2.547-1.517,1.519a2.01,2.01,0,0,0-.589,1.422,2.009,2.009,0,0,0,.589,1.422l7.085,7.086Z" transform="translate(3180.304 -1597.981)" fill="#57b0b7"/>
        </g>
      </g>
    </g>
  </g>
</svg>
