<svg xmlns="http://www.w3.org/2000/svg" width="22" height="22" viewBox="0 0 22 22">
  <g id="ic-register" transform="translate(0.381)">
    <g id="Group_6" data-name="Group 6" transform="translate(-0.381)">
      <rect id="Rectangle_23" data-name="Rectangle 23" width="22" height="22" transform="translate(0)" fill="none"/>
    </g>
    <g id="Group_8" data-name="Group 8" transform="translate(1.52 1.813)">
      <g id="Group_7" data-name="Group 7">
        <rect id="Rectangle_24" data-name="Rectangle 24" width="3.626" height="1.36" transform="translate(10.879 9.066)" fill="#008179"/>
        <rect id="Rectangle_25" data-name="Rectangle 25" width="3.626" height="1.36" transform="translate(10.879 11.786)" fill="#008179"/>
        <path id="Path_34" data-name="Path 34" d="M18.319,6.533H13.786V3.813A1.819,1.819,0,0,0,11.973,2H10.16A1.819,1.819,0,0,0,8.346,3.813v2.72H3.813A1.819,1.819,0,0,0,2,8.346v9.973a1.819,1.819,0,0,0,1.813,1.813H18.319a1.819,1.819,0,0,0,1.813-1.813V8.346A1.819,1.819,0,0,0,18.319,6.533Zm-8.16,0V3.813h1.813V8.346H10.16Zm8.16,11.786H3.813V8.346H8.346A1.819,1.819,0,0,0,10.16,10.16h1.813a1.819,1.819,0,0,0,1.813-1.813h4.533Z" transform="translate(-2 -2)" fill="#008179"/>
        <circle id="Ellipse_1" data-name="Ellipse 1" cx="1.36" cy="1.36" r="1.36" transform="translate(4.986 9.066)" fill="#008179"/>
        <path id="Path_35" data-name="Path 35" d="M10.606,16.14a4.756,4.756,0,0,0-3.772,0A1.365,1.365,0,0,0,6,17.4v.39h5.44V17.4A1.365,1.365,0,0,0,10.606,16.14Z" transform="translate(-2.374 -3.284)" fill="#008179"/>
      </g>
    </g>
  </g>
</svg>
