<svg id="ic-service-default" xmlns="http://www.w3.org/2000/svg" width="55" height="55" viewBox="0 0 55 55">
  <rect id="Rectangle_372" data-name="Rectangle 372" width="55" height="55" fill="none"/>
  <path id="Path_343" data-name="Path 343" d="M-3253.5,1580.449h-46.4a3.355,3.355,0,0,1-3.352-3.352v-30.243a3.357,3.357,0,0,1,3.352-3.354h46.4a3.357,3.357,0,0,1,3.354,3.354V1577.1A3.356,3.356,0,0,1-3253.5,1580.449Zm-46.555-33.6c0,.239-.087,30.4.153,30.4h46.4c.3,0,.176-30.551,0-30.551C-3253.744,1546.7-3300.06,1546.614-3300.06,1546.854Zm35.464-13.264h-23.616v6.812h3.2v-3.612h17.217v3.612h3.2Zm8.685,19.771-2.827-1.5-3.527,6.66h-28.881l-3.528-6.66-2.826,1.5,4.429,8.362h32.73Zm-16.559-.615h-8.474v3.2h8.474Z" transform="translate(3304.524 -1530.347)" fill="#666"/>
</svg>
