<svg xmlns="http://www.w3.org/2000/svg" width="74" height="74" viewBox="0 0 74 74">
  <g id="ic-service" transform="translate(-484 -1360)">
    <rect id="Rectangle_372" data-name="Rectangle 372" width="74" height="74" transform="translate(484 1360)" fill="none"/>
    <path id="Path_343" data-name="Path 343" d="M-3236.619,1596.353h-62.151a4.494,4.494,0,0,1-4.49-4.49v-40.507a4.5,4.5,0,0,1,4.49-4.492h62.151a4.5,4.5,0,0,1,4.492,4.492v40.507A4.5,4.5,0,0,1-3236.619,1596.353Zm-62.355-45c0,.321-.117,40.712.2,40.712h62.151c.4,0,.236-40.919,0-40.919C-3236.939,1551.149-3298.974,1551.035-3298.974,1551.356Zm47.5-17.766H-3283.1v9.123h4.285v-4.838h23.061v4.838h4.286Zm11.633,26.481-3.787-2.005-4.724,8.921h-38.683l-4.725-8.921-3.785,2.005,5.932,11.2h43.839Zm-22.178-.824h-11.351v4.285h11.351Z" transform="translate(3788.954 -169.246)" fill="#008980"/>
  </g>
</svg>
