<svg xmlns="http://www.w3.org/2000/svg" width="74" height="74" viewBox="0 0 74 74">
  <g id="ic-service" transform="translate(1 0.001)">
    <path id="Path_27" data-name="Path 27" d="M53.368,219.031a10.207,10.207,0,0,1-2.042,1.311c-.465.05-.933.086-1.4.114V215q-1.688-1.382-3.393-2.861v8.32c-.47-.029-.939-.065-1.4-.115a10.215,10.215,0,0,1-2.043-1.311,21.9,21.9,0,0,1-5.857-8.731h7.213q-1.844-1.649-3.69-3.393H36.04a47.422,47.422,0,0,1-1.36-6q-2.01-2.079-3.9-4.163a54.087,54.087,0,0,0,1.733,10.166H23.841a28.459,28.459,0,0,1-4.216-13.353h8.321q-1.475-1.7-2.86-3.393H19.624a28.648,28.648,0,0,1,.954-5.809q-1.728-2.358-3.229-4.637a33.174,33.174,0,0,0,43.016,43.018c-2.02-1.329-4.1-2.806-6.213-4.406C53.893,218.576,53.632,218.815,53.368,219.031Zm-25.405-6.911c-.581-.581-1.133-1.191-1.662-1.819h7.309a36.864,36.864,0,0,0,1.814,4.2,26.93,26.93,0,0,0,2.62,4.146A28.681,28.681,0,0,1,27.963,212.119Z" transform="translate(-12.896 -154.039)" fill="#008179"/>
    <path id="Path_28" data-name="Path 28" d="M78.442,42.891c.725,1.3,1.549,2.65,2.456,4.043.453-.526.912-1.045,1.4-1.536a28.688,28.688,0,0,1,10.1-6.534,30.955,30.955,0,0,0-4.461,8.352H81.078c.727,1.107,1.51,2.24,2.339,3.393h3.439c-.313,1.126-.581,2.3-.823,3.494q1.364,1.753,2.85,3.541a48.2,48.2,0,0,1,1.512-7.035h10.472V63.961H94.421q1.573,1.7,3.221,3.393h3.225V70.58q1.69,1.647,3.393,3.221V67.355H116.8a51.845,51.845,0,0,1-2.063,13.353H112.25q2.446,1.97,4.814,3.7c.039-.1.084-.2.123-.3h7.3c-.53.628-1.081,1.238-1.662,1.819-.49.49-1.005.957-1.531,1.409,1.391.906,2.74,1.728,4.035,2.452A33.17,33.17,0,1,0,78.442,42.891Zm48.506,37.817h-8.677a55.944,55.944,0,0,0,1.93-13.353h10.963A28.459,28.459,0,0,1,126.948,80.708Zm0-30.1a28.464,28.464,0,0,1,4.218,13.353H120.191a56.037,56.037,0,0,0-1.911-13.353ZM122.825,45.4c.581.581,1.132,1.19,1.661,1.818H117.18a37.113,37.113,0,0,0-1.814-4.2,27.112,27.112,0,0,0-2.619-4.146A28.7,28.7,0,0,1,122.825,45.4ZM104.26,37.06c.472.029.94.065,1.4.115a10.149,10.149,0,0,1,2.041,1.31,21.887,21.887,0,0,1,5.855,8.731h-9.3Zm0,13.549h10.488a51.922,51.922,0,0,1,2.06,13.353H104.26ZM97.421,38.484a10.2,10.2,0,0,1,2.041-1.311c.465-.05.933-.086,1.4-.115V47.215H91.583c.374-.925.768-1.817,1.193-2.639A19.226,19.226,0,0,1,97.421,38.484Z" transform="translate(-67.235 -27.84)" fill="#008179"/>
    <path id="Path_29" data-name="Path 29" d="M72.707,61.316a45.829,45.829,0,0,0-2.843-6.047A38.341,38.341,0,0,1,67.121,59.9c.517,1.069.951,2.075,1.294,3a13.653,13.653,0,0,1,1.008,4.476,3.522,3.522,0,0,1-.152,1.118,1.092,1.092,0,0,1-.772.772,3.552,3.552,0,0,1-1.116.151,13.119,13.119,0,0,1-4.167-.894,40.621,40.621,0,0,1-5.985-2.794C49.611,61.5,39.714,53.81,29.956,44.044S12.5,24.389,8.264,16.768a40.736,40.736,0,0,1-2.793-5.984,13.149,13.149,0,0,1-.894-4.167A3.531,3.531,0,0,1,4.729,5.5,1.1,1.1,0,0,1,5.5,4.728a3.546,3.546,0,0,1,1.119-.152,13.669,13.669,0,0,1,4.472,1.006c.931.344,1.941.78,3.016,1.3A38.24,38.24,0,0,1,18.74,4.137a45.61,45.61,0,0,0-6.06-2.847A17.962,17.962,0,0,0,6.621,0,8.072,8.072,0,0,0,4.034.393a5.8,5.8,0,0,0-2.26,1.385A5.765,5.765,0,0,0,.393,4.034,8.05,8.05,0,0,0,0,6.618a17.434,17.434,0,0,0,1.159,5.7,45.092,45.092,0,0,0,3.106,6.677C8.817,27.162,16.711,37.267,26.72,47.281s20.118,17.9,28.286,22.455a45.186,45.186,0,0,0,6.678,3.106A17.456,17.456,0,0,0,67.382,74a8.047,8.047,0,0,0,2.584-.392,5.661,5.661,0,0,0,3.641-3.639A8.065,8.065,0,0,0,74,67.382,17.946,17.946,0,0,0,72.707,61.316Z" transform="translate(-1)" fill="#008179"/>
  </g>
</svg>
