<svg id="ic-search-list" xmlns="http://www.w3.org/2000/svg" width="50" height="50" viewBox="0 0 50 50">
  <g id="Group_278" data-name="Group 278">
    <path id="Path_147" data-name="Path 147" d="M0,0H50V50H0Z" fill="none"/>
  </g>
  <g id="Group_279" data-name="Group 279" transform="translate(4.167 12.5)">
    <path id="Path_148" data-name="Path 148" d="M12.417,12.25H2V8.083H12.417Zm0,6.25H2v4.167H12.417ZM40.729,33.083,32.75,25.1a10.418,10.418,0,1,1,4.667-8.687,10.372,10.372,0,0,1-1.729,5.729l7.979,8ZM33.25,16.417A6.25,6.25,0,1,0,27,22.667,6.268,6.268,0,0,0,33.25,16.417ZM2,33.083H22.833V28.917H2Z" transform="translate(-2 -6)" fill="#008179"/>
  </g>
</svg>
