<svg id="ic-select-spot" xmlns="http://www.w3.org/2000/svg" width="30" height="30" viewBox="0 0 30 30">
  <g id="Group_301" data-name="Group 301">
    <rect id="Rectangle_284" data-name="Rectangle 284" width="30" height="30" fill="none"/>
  </g>
  <g id="Group_302" data-name="Group 302" transform="translate(5 1.247)">
    <path id="Path_171" data-name="Path 171" d="M12.75,13.5H15.4l7.7-7.7-2.65-2.65-7.7,7.7ZM24.887,2.251,24,1.363a1.245,1.245,0,0,0-1.763,0l-.9.9,2.65,2.65.9-.9A1.245,1.245,0,0,0,24.887,2.251Zm-3.512,8.812A8.669,8.669,0,0,1,21.5,12.5c0,2.137-1.35,5.8-7.5,11.425C7.85,18.313,6.5,14.638,6.5,12.5A7.46,7.46,0,0,1,14,4.751a7.933,7.933,0,0,1,1.212.1l2.063-2.062A10.7,10.7,0,0,0,14,2.251,9.943,9.943,0,0,0,4,12.5q0,6.225,10,14.75,9.994-8.531,10-14.75A10.87,10.87,0,0,0,23.438,9Z" transform="translate(-4 -0.998)"/>
  </g>
</svg>
