<svg xmlns="http://www.w3.org/2000/svg" xmlns:xlink="http://www.w3.org/1999/xlink" width="22" height="22" viewBox="0 0 22 22">
  <defs>
    <clipPath id="clip-path">
      <rect id="Rectangle_96" data-name="Rectangle 96" width="20" height="20" transform="translate(0 -0.494)" fill="#999"/>
    </clipPath>
  </defs>
  <g id="ic-user-default" transform="translate(0 0.494)">
    <rect id="Rectangle_267" data-name="Rectangle 267" width="22" height="22" transform="translate(0 -0.494)" fill="none"/>
    <g id="Group_259" data-name="Group 259" transform="translate(1 1)">
      <g id="Group_57" data-name="Group 57" transform="translate(0 0)" clip-path="url(#clip-path)">
        <path id="Path_18" data-name="Path 18" d="M0,9.819a9.821,9.821,0,1,1,9.945,9.822A9.818,9.818,0,0,1,0,9.819M9.952,18.6c.244-.02.621-.034.993-.082A8.677,8.677,0,0,0,15.9,16.14a.147.147,0,0,0,.038-.2,6.626,6.626,0,0,0-7.028-3.948,6.532,6.532,0,0,0-5.2,3.922.18.18,0,0,0,.051.248A8.86,8.86,0,0,0,9.952,18.6m-.135-7.722a3.508,3.508,0,1,0-3.5-3.51,3.514,3.514,0,0,0,3.5,3.51" transform="translate(0.179 0.179)" fill="#999" fill-rule="evenodd"/>
      </g>
    </g>
  </g>
</svg>
