<svg xmlns="http://www.w3.org/2000/svg" width="22" height="22" viewBox="0 0 22 22">
  <g id="ic-web" transform="translate(-1102 -457)">
    <path id="Path_399" data-name="Path 399" d="M3.667,5.833h16.5V4H3.667A1.839,1.839,0,0,0,1.833,5.833V15.917H0v2.75H12.833v-2.75H3.667ZM21.083,7.667h-5.5a.919.919,0,0,0-.917.917V17.75a.919.919,0,0,0,.917.917h5.5A.919.919,0,0,0,22,17.75V8.583A.919.919,0,0,0,21.083,7.667Zm-.917,8.25H16.5V9.5h3.667Z" transform="translate(1102 456.667)" fill="#666"/>
    <rect id="Rectangle_390" data-name="Rectangle 390" width="22" height="22" transform="translate(1102 457)" fill="none"/>
  </g>
</svg>
