<svg xmlns="http://www.w3.org/2000/svg" width="28" height="28" viewBox="0 0 28 28">
  <g id="ic-work" transform="translate(-479 -986)">
    <rect id="Rectangle_277" data-name="Rectangle 277" width="28" height="28" transform="translate(479 986)" fill="none"/>
    <g id="デスクワークアイコン" transform="translate(448.278 987.573)">
      <path id="Path_151" data-name="Path 151" d="M287.87,5.045a2.605,2.605,0,1,0-3.354-1.524A2.6,2.6,0,0,0,287.87,5.045Z" transform="translate(-238.251 0)" fill="#666"/>
      <path id="Path_152" data-name="Path 152" d="M208.073,137.349v-6.984a1.917,1.917,0,0,0-3.834.066v6.3l-4.14.756a1.768,1.768,0,0,0-1.6,1.71l.126,6.31a1.335,1.335,0,1,0,2.669.01l.388-4.954h3.567C207.249,140.557,208.079,139.351,208.073,137.349Z" transform="translate(-156.566 -122.246)" fill="#666"/>
      <path id="Path_153" data-name="Path 153" d="M286.078,232.945a1.01,1.01,0,0,0-1.2.779L283.8,238.8a3.414,3.414,0,0,1-.311.862,1.683,1.683,0,0,1-.682.7,3.25,3.25,0,0,1-1.324.337c-.159.013-.329.023-.511.024h-2.852a1.013,1.013,0,0,0,.036,2.026h2.837c.223,0,.441-.016.651-.032a6.008,6.008,0,0,0,1.485-.294,3.778,3.778,0,0,0,1.74-1.2,4.8,4.8,0,0,0,.9-1.966l0-.012,1.083-5.105A1.01,1.01,0,0,0,286.078,232.945Z" transform="translate(-231.379 -221.616)" fill="#666"/>
      <path id="Path_154" data-name="Path 154" d="M42.458,101.992v-1.448H37.223l-1.934-4.865-1.346.535,2.3,5.779Z" transform="translate(0 -91.035)" fill="#666"/>
      <path id="Path_155" data-name="Path 155" d="M46.127,240.369H35.673v13.186h1.855V242.39h8.6Z" transform="translate(-1.646 -228.701)" fill="#666"/>
    </g>
  </g>
</svg>
