<svg xmlns="http://www.w3.org/2000/svg" width="96.849" height="97" viewBox="0 0 96.849 97">
  <g id="qrcode" transform="translate(0 0.151)">
    <path id="Path_42" data-name="Path 42" d="M100,0V3.335h6.669V0Z" transform="translate(-66.656 0)" fill="#008179"/>
    <rect id="Rectangle_39" data-name="Rectangle 39" width="4" height="3" transform="translate(59.849 -0.151)" fill="#008179"/>
    <path id="Path_43" data-name="Path 43" d="M223.335,16.672V3.334h16.672V20.006H223.335ZM220,0V23.341h23.341V0Z" transform="translate(-146.643 0)" fill="#008179"/>
    <path id="Path_44" data-name="Path 44" d="M130,0V3.335h6.669V6.669H140V0Z" transform="translate(-86.653 0)" fill="#008179"/>
    <rect id="Rectangle_40" data-name="Rectangle 40" width="3" height="4" transform="translate(56.849 2.849)" fill="#008179"/>
    <path id="Path_45" data-name="Path 45" d="M193.334,0V6.669H190V10h6.669V0Z" transform="translate(-126.646 0)" fill="#008179"/>
    <path id="Path_46" data-name="Path 46" d="M243.334,20H240V30h10V20h-6.669Z" transform="translate(-159.974 -13.331)" fill="#008179"/>
    <path id="Path_47" data-name="Path 47" d="M83.334,16.669H90V13.334H86.669V10H80V20h3.334Z" transform="translate(-53.325 -6.666)" fill="#008179"/>
    <path id="Path_48" data-name="Path 48" d="M26.669,30H30V20H20V30h6.669Z" transform="translate(-13.331 -13.331)" fill="#008179"/>
    <rect id="Rectangle_41" data-name="Rectangle 41" width="4" height="4" transform="translate(32.849 12.849)" fill="#008179"/>
    <rect id="Rectangle_42" data-name="Rectangle 42" width="3" height="3" transform="translate(36.849 16.849)" fill="#008179"/>
    <path id="Path_49" data-name="Path 49" d="M123.334,33.338h3.334v3.334H130V30h3.334V26.669h6.669V30h-3.334v3.334h3.334v3.334h3.334V30h6.669V26.669h-6.669V23.334h-6.669V20h-3.334v3.334H130V20h-3.334v6.669H120V30h3.334Z" transform="translate(-79.987 -13.331)" fill="#008179"/>
    <path id="Path_50" data-name="Path 50" d="M3.334,16.672V3.334H20.006V20.006H3.334ZM0,0V23.341H23.341V0Z" transform="translate(0 0)" fill="#008179"/>
    <rect id="Rectangle_43" data-name="Rectangle 43" width="4" height="3" transform="translate(32.849 19.849)" fill="#008179"/>
    <rect id="Rectangle_44" data-name="Rectangle 44" width="3" height="3" transform="translate(53.849 19.849)" fill="#008179"/>
    <path id="Path_51" data-name="Path 51" d="M116.669,63.334V60h-3.334v6.669H110V70h6.669V66.669H120V63.334Z" transform="translate(-73.322 -39.994)" fill="#008179"/>
    <rect id="Rectangle_45" data-name="Rectangle 45" width="4" height="4" transform="translate(49.849 22.849)" fill="#008179"/>
    <rect id="Rectangle_46" data-name="Rectangle 46" width="3" height="3" transform="translate(19.849 26.849)" fill="#008179"/>
    <path id="Path_52" data-name="Path 52" d="M83.334,66.669h3.334V63.334H83.334V60H80V70h3.334Z" transform="translate(-53.325 -39.994)" fill="#008179"/>
    <path id="Path_53" data-name="Path 53" d="M163.334,83.334h3.334V80H160v3.334Z" transform="translate(-106.65 -53.325)" fill="#008179"/>
    <path id="Path_54" data-name="Path 54" d="M206.669,70H210V66.669h-6.669V60H200V70h6.669Z" transform="translate(-133.312 -39.994)" fill="#008179"/>
    <path id="Path_55" data-name="Path 55" d="M0,80v6.669H6.669V83.335H3.334V80Z" transform="translate(0 -53.325)" fill="#008179"/>
    <path id="Path_56" data-name="Path 56" d="M46.669,93.334V90H40v3.334h6.669Z" transform="translate(-26.663 -59.99)" fill="#008179"/>
    <path id="Path_57" data-name="Path 57" d="M233.334,93.334h3.334V90H230v3.334Z" transform="translate(-153.309 -59.99)" fill="#008179"/>
    <path id="Path_58" data-name="Path 58" d="M253.334,86.669H260V80H250v3.334h3.334Z" transform="translate(-166.64 -53.325)" fill="#008179"/>
    <rect id="Rectangle_47" data-name="Rectangle 47" width="3" height="4" transform="translate(9.849 32.849)" fill="#008179"/>
    <rect id="Rectangle_48" data-name="Rectangle 48" width="3" height="4" transform="translate(39.849 32.849)" fill="#008179"/>
    <path id="Path_59" data-name="Path 59" d="M180,96.669h3.334V93.334h3.334V90H180v6.669Z" transform="translate(-119.981 -59.99)" fill="#008179"/>
    <path id="Path_60" data-name="Path 60" d="M196.669,100v3.334H190v3.334h3.334V110h3.334v-3.334H200v6.669h3.334V110h3.334v-6.669h-3.334V100h-6.669Z" transform="translate(-126.646 -66.656)" fill="#008179"/>
    <path id="Path_61" data-name="Path 61" d="M6.669,110H0v6.669H3.334v-3.334H10V110Z" transform="translate(0 -73.322)" fill="#008179"/>
    <rect id="Rectangle_49" data-name="Rectangle 49" width="4" height="3" transform="translate(12.849 36.849)" fill="#008179"/>
    <rect id="Rectangle_50" data-name="Rectangle 50" width="3" height="3" transform="translate(83.849 36.849)" fill="#008179"/>
    <rect id="Rectangle_51" data-name="Rectangle 51" width="3" height="3" transform="translate(9.849 39.849)" fill="#008179"/>
    <path id="Path_62" data-name="Path 62" d="M73.338,100H70V96.669h6.669V90H73.338v3.334H66.669V90H63.334v3.334H60v3.334h3.334V100H60v3.334H76.672V100Z" transform="translate(-39.994 -59.99)" fill="#008179"/>
    <path id="Path_63" data-name="Path 63" d="M273.334,120v3.334H270v3.334h6.669V120Z" transform="translate(-179.971 -79.987)" fill="#008179"/>
    <rect id="Rectangle_52" data-name="Rectangle 52" width="4" height="4" transform="translate(2.849 42.849)" fill="#008179"/>
    <path id="Path_64" data-name="Path 64" d="M40,130v3.334h6.669V130H40Z" transform="translate(-26.663 -86.653)" fill="#008179"/>
    <rect id="Rectangle_53" data-name="Rectangle 53" width="4" height="4" transform="translate(79.849 42.849)" fill="#008179"/>
    <rect id="Rectangle_54" data-name="Rectangle 54" width="3" height="3" transform="translate(19.849 46.849)" fill="#008179"/>
    <path id="Path_65" data-name="Path 65" d="M253.334,140H250v3.334h3.334v3.335H250V150h3.334v3.334H260v3.334h3.334V150h-6.669V140Z" transform="translate(-166.64 -93.318)" fill="#008179"/>
    <path id="Path_66" data-name="Path 66" d="M120,106.675v3.334h3.334v-6.669h3.334v6.669h-3.334v3.334h-6.669v3.334H120v3.334h3.334v-3.334h3.334v-3.334h3.334V110.01h3.334v-3.334h-3.334v-3.334h6.669v-3.334h3.334V96.672h-6.669v3.334h-3.334V96.672h-3.334v3.334h-3.334V93.338h6.669V86.669h-3.334V83.334h-3.334V80H120v6.669h3.334V90H120v3.334h-3.334v3.334H110v3.334h6.669v3.334h-3.334v3.334H120Z" transform="translate(-73.322 -53.325)" fill="#008179"/>
    <rect id="Rectangle_55" data-name="Rectangle 55" width="3" height="4" transform="translate(63.849 49.849)" fill="#008179"/>
    <path id="Path_67" data-name="Path 67" d="M213.334,143.334V140H210v6.669h3.334Z" transform="translate(-139.978 -93.318)" fill="#008179"/>
    <path id="Path_68" data-name="Path 68" d="M230,146.669h3.334V140H230v6.669Z" transform="translate(-153.309 -93.318)" fill="#008179"/>
    <rect id="Rectangle_56" data-name="Rectangle 56" width="3" height="4" transform="translate(93.849 49.849)" fill="#008179"/>
    <path id="Path_69" data-name="Path 69" d="M43.334,153.334V150H40v6.669h3.334Z" transform="translate(-26.663 -99.984)" fill="#008179"/>
    <rect id="Rectangle_57" data-name="Rectangle 57" width="3" height="3" transform="translate(19.849 53.849)" fill="#008179"/>
    <path id="Path_70" data-name="Path 70" d="M6.669,150H0v6.669H3.334V160H6.669v-3.334H10V150Z" transform="translate(0 -99.984)" fill="#008179"/>
    <path id="Path_71" data-name="Path 71" d="M13.334,173.334v3.334H10v6.669h6.669v-6.669H20V170H16.669v3.334Z" transform="translate(-6.666 -113.315)" fill="#008179"/>
    <rect id="Rectangle_58" data-name="Rectangle 58" width="3" height="4" transform="translate(83.849 59.849)" fill="#008179"/>
    <rect id="Rectangle_59" data-name="Rectangle 59" width="3" height="3" transform="translate(53.849 63.849)" fill="#008179"/>
    <path id="Path_72" data-name="Path 72" d="M123.347,183.341v-6.669h10v10h-10ZM120.013,160v3.334h-6.669V170h3.334v6.668h3.334v3.334h-3.334v13.338H110.01v-6.669h-3.334v3.335h-3.334v6.669H96.672v-3.334H90V190.01H86.669v3.334H83.334v6.669H80v3.334H96.672v-3.334h3.335v3.334h13.337v-3.334H110.01v-3.334h10v-3.334h3.334V190.01h13.338v3.334H123.347v10h6.669v-3.334h-3.335v-3.334h3.335v3.334h3.334v-3.334h3.334v3.334h3.334v3.334h3.334v-6.669h3.334v-3.334h-3.334V190.01h-3.334v-3.335h-3.334v-3.334h6.669v-3.334h-3.334v-3.334h-3.334V170h-6.668v-3.334h6.668v-3.334h-10V170h-6.669v-3.334h3.334V160Z" transform="translate(-53.325 -106.649)" fill="#008179"/>
    <rect id="Rectangle_60" data-name="Rectangle 60" width="3" height="3" transform="translate(56.849 66.849)" fill="#008179"/>
    <path id="Path_73" data-name="Path 73" d="M266.669,200H260v3.334h10V200Z" transform="translate(-173.305 -133.312)" fill="#008179"/>
    <rect id="Rectangle_61" data-name="Rectangle 61" width="4" height="4" transform="translate(59.849 69.849)" fill="#008179"/>
    <path id="Path_74" data-name="Path 74" d="M3.334,236.672V223.334H20.006v16.672H3.334ZM20.006,220H0v23.341H23.341V220Z" transform="translate(0 -146.643)" fill="#008179"/>
    <rect id="Rectangle_62" data-name="Rectangle 62" width="3" height="3" transform="translate(29.849 73.849)" fill="#008179"/>
    <rect id="Rectangle_63" data-name="Rectangle 63" width="3" height="3" transform="translate(73.849 73.849)" fill="#008179"/>
    <path id="Path_75" data-name="Path 75" d="M23.334,240H20v10H30V240H23.334Z" transform="translate(-13.331 -159.974)" fill="#008179"/>
    <path id="Path_76" data-name="Path 76" d="M76.675,183.344H80.01v-6.669h3.334v3.334h3.334v-3.334h3.334v-3.334H86.678v-6.669H83.344v6.669H80.01v-3.334H73.341v-3.334h3.334v-3.334H73.341V160h3.334v-3.334H73.341v-3.334H70.006V160H66.672V150H60v3.334h3.334v3.334H60V160H50v3.334H63.338v3.334H50v3.334H60v3.334h3.334v-3.334h3.334v3.334h3.334v3.334H66.672v3.334h3.334v3.334h6.669Zm-10-20.006h3.334v3.334H66.672Zm6.669,13.338v-3.334h3.334v6.669H73.341Z" transform="translate(-33.328 -99.984)" fill="#008179"/>
    <path id="Path_77" data-name="Path 77" d="M273.334,230H270v6.669h3.334V240h3.334V230Z" transform="translate(-179.971 -153.308)" fill="#008179"/>
    <rect id="Rectangle_64" data-name="Rectangle 64" width="3" height="4" transform="translate(93.849 89.849)" fill="#008179"/>
    <rect id="Rectangle_65" data-name="Rectangle 65" width="3" height="3" transform="translate(63.849 93.849)" fill="#008179"/>
  </g>
</svg>
